#N canvas 831 176 526 297 12;
#X obj 49 -19 cnv 15 380 50 empty empty PD_network_sniffer_with_pcaplib_(tcpdump)
10 35 0 11 -99865 -262144 0;
#X obj 64 -19 cnv 15 200 20 empty empty PCAP_for_pd__0.0.5 10 12 0
12 -260097 -1 0;
#X obj 49 30 cnv 15 380 20 empty empty Jordi_Sala_2010_(poperbu@gmail.com)
80 8 0 8 -99865 -228856 0;
#X obj 49 51 cnv 15 380 20 empty empty http://musa.poperbu.net/puredata
80 8 0 8 -99865 -228856 0;
#X text 53 71 OSX adaptation: Nicolas Montgermont (nim.on.free.fr)
;
#X obj 52 205 pdpcap;
#X text 103 204 ->old version object (deprecated);
#X obj 50 120 pcap_device;
#X obj 51 161 pcap_file;
#X text 138 120 ->captures live network traffic from net device.;
#X text 128 163 ->read traffic from pcap file.;
