#N canvas 905 167 613 557 10;
#X msg 147 150 connect;
#X msg 162 196 disconnect;
#X msg 155 174 capture;
#X obj 282 223 tgl 15 0 empty empty loop 17 7 0 10 -262144 -1 -1 0
1;
#X obj 147 281 tgl 15 0 empty empty empty 17 7 0 10 -262144 -1 -1 0
1;
#X obj 160 439 s npacket;
#X obj 174 418 s ether;
#X obj 201 376 s ipsrc;
#X obj 214 355 s ipdst;
#X obj 187 397 s ipproto;
#X obj 228 335 s portsrc;
#X obj 241 315 s portdst;
#X obj 282 276 s pbang;
#X obj 255 295 s header;
#X obj 308 363 s2l;
#X msg 308 393 set \$3;
#X obj 308 431 s ethertype;
#X obj 387 433 s len;
#X msg 379 387 \$9;
#X msg 259 194 timeout 50;
#X msg 263 176 delay 50;
#X obj 260 156 loadbang;
#X obj 54 15 bng 15 250 50 0 empty empty connect 17 7 0 8 -260097 -1
-1;
#X obj 54 30 bng 15 250 50 0 empty empty capture 17 7 0 8 -4034 -1
-1;
#X obj 54 45 bng 15 250 50 0 empty empty disconnect 17 7 0 8 -258113
-1 -1;
#X obj 135 45 tgl 15 0 empty empty status 17 7 0 8 -262144 -1 -1 0
1;
#X obj 135 15 tgl 15 0 empty empty loop 17 7 0 8 -262144 -1 -1 0 1
;
#X obj 135 30 tgl 15 0 empty empty debug 17 7 0 8 -262144 -1 -1 0 1
;
#X msg 252 121 debug \$1;
#X obj 135 63 nbx 5 14 -1e+37 1e+37 0 0 empty empty N.of.packets -75
6 0 8 -262144 -1 -1 0 256;
#X obj 251 23 inlet;
#X obj 92 481 outlet;
#X obj 292 489 outlet;
#X obj 147 253 pcap_device ----------------;
#X connect 0 0 33 0;
#X connect 1 0 33 0;
#X connect 2 0 33 0;
#X connect 3 0 33 1;
#X connect 4 0 25 0;
#X connect 14 0 15 0;
#X connect 14 0 18 0;
#X connect 15 0 16 0;
#X connect 18 0 17 0;
#X connect 19 0 33 0;
#X connect 20 0 33 0;
#X connect 21 0 20 0;
#X connect 21 0 19 0;
#X connect 22 0 0 0;
#X connect 23 0 2 0;
#X connect 24 0 1 0;
#X connect 26 0 3 0;
#X connect 27 0 28 0;
#X connect 28 0 33 0;
#X connect 30 0 33 0;
#X connect 33 0 4 0;
#X connect 33 1 5 0;
#X connect 33 1 29 0;
#X connect 33 2 6 0;
#X connect 33 3 9 0;
#X connect 33 4 7 0;
#X connect 33 5 8 0;
#X connect 33 6 10 0;
#X connect 33 7 11 0;
#X connect 33 8 13 0;
#X connect 33 8 14 0;
#X connect 33 8 31 0;
#X connect 33 10 12 0;
#X connect 33 10 32 0;
#X coords 0 -1 1 1 140 80 1 50 0;
