#N canvas 459 323 1037 583 10;
#X msg 569 102 disconnect;
#X msg 345 70 capture;
#X obj 225 457 tgl 15 0 empty empty empty 17 7 0 10 -262144 -1 -1 0
1;
#X obj 796 26 inlet;
#X obj 54 56 cnv 15 115 50 empty empty empty 20 12 0 14 -233017 -66577
0;
#X obj 60 89 bng 13 250 50 0 \$1device_list \$1device_list_init list
17 7 0 8 -191407 -1 -1;
#X obj 106 88 bng 13 250 50 0 \$1device_info \$1device_info_init info
17 7 0 8 -191407 -1 -1;
#X obj 57 74 hradio 12 1 0 9 \$1device_num_init \$1device_num_init2
empty 0 -8 0 10 -260097 -1 -1 0;
#X obj 135 58 nbx 2 13 0 10 0 0 \$1device_num \$1device_num_init empty
0 -8 0 10 -99865 -260097 -260097 0 256;
#X text 56 55 DEVICE;
#X obj 54 109 cnv 15 115 50 empty empty empty 20 12 0 14 -233017 -66577
0;
#X text 56 108 PCAP FILE;
#X obj 57 140 hradio 12 1 0 9 empty \$0read_file newcapture 0 7 0 8
-1 -1 -262144 0;
#X obj 58 124 bng 13 250 50 0 \$1select_file \$1select_file_init select
17 7 0 8 -260097 -1 -1;
#X obj 54 3 cnv 15 115 50 empty empty SOURCE 25 8 0 10 -162280 -262144
0;
#X obj 61 19 vradio 15 1 0 2 \$1traffic_source \$1traffic_source_init
empty 0 -8 0 8 -260097 -1 -1 0;
#X obj 172 3 cnv 15 115 50 empty empty CAPTURE 25 8 0 10 -162280 -262144
0;
#X obj 178 19 bng 15 250 50 0 \$1capture \$1capture_init START_capture
17 7 0 8 -4034 -1 -1;
#X obj 178 36 bng 15 250 50 0 \$1disconnect \$1disconnect_init Disconnect
17 7 0 8 -258113 -1 -1;
#X obj 806 70 r \$1inputs;
#N canvas 12 325 707 395 sources 0;
#X obj 228 68 r \$1traffic_source;
#X obj 228 110 select 0 1;
#X obj 430 112 openpanel;
#X obj 430 90 bng 15 250 50 0 empty empty empty 17 7 0 10 -262144 -1
-1;
#X text 448 85 read;
#X obj 429 131 hcs/split_path;
#X msg 546 127 label \$1;
#X obj 546 150 s \$0read_file;
#X obj 430 61 r \$1select_file;
#X obj 270 305 s \$1inputs;
#X msg 58 147 device_list;
#X msg 35 85 device_num \$1;
#X msg 66 210 device_info;
#X obj 66 181 r \$1device_info;
#X obj 58 119 r \$1device_list;
#X obj 35 57 r \$1device_num;
#X text 73 33 DEVICE;
#X text 484 22 PCAP FILE;
#X msg 228 189 connect;
#X text 238 13 SELECT SOURCE;
#X msg 346 255 read /home/musa/compilar/pd/pure-data/externals/newcapture
;
#X msg 510 182 set read \$1;
#X obj 35 285 spigot;
#X msg 104 245 1;
#X msg 135 246 0;
#X obj 33 320 s $device_in;
#X connect 0 0 1 0;
#X connect 1 0 18 0;
#X connect 1 0 23 0;
#X connect 1 1 20 0;
#X connect 1 1 24 0;
#X connect 2 0 5 0;
#X connect 2 0 21 0;
#X connect 3 0 2 0;
#X connect 5 1 6 0;
#X connect 6 0 7 0;
#X connect 8 0 3 0;
#X connect 10 0 22 0;
#X connect 11 0 22 0;
#X connect 12 0 22 0;
#X connect 13 0 12 0;
#X connect 14 0 10 0;
#X connect 15 0 11 0;
#X connect 18 0 9 0;
#X connect 20 0 9 0;
#X connect 21 0 20 0;
#X connect 22 0 25 0;
#X connect 23 0 22 1;
#X connect 24 0 22 1;
#X restore 87 248 pd sources;
#X obj 172 56 cnv 15 115 103 empty empty CAPTURE_OPTIONS 2 8 0 8 -228856
-1 0;
#N canvas 4 125 798 687 capture_op 0;
#X obj 114 315 s \$1inputs;
#X msg 23 70 debug \$1;
#X obj 23 34 r \$1debug_mode;
#X msg 376 122 packets \$1;
#X floatatom 376 93 5 1 100 0 - - -;
#X floatatom 153 103 5 1 1000 0 - - -;
#X msg 153 127 timeout \$1;
#X floatatom 484 98 5 1 1000 0 - - -;
#X msg 484 123 delay \$1;
#X floatatom 296 86 5 0 0 0 - - -;
#X msg 296 115 data \$1;
#X obj 174 396 loadbang;
#X msg 173 440 500;
#X obj 174 419 bng 15 250 50 0 empty empty empty 17 7 0 10 -262144
-1 -1;
#X obj 171 479 s \$1timeout_init;
#X msg 282 440 0;
#X obj 155 52 r \$1timeout;
#X obj 280 479 s \$1data_init;
#X obj 297 52 r \$1data;
#X obj 377 52 r \$1packets;
#X msg 169 509 1;
#X obj 167 548 s \$1packets_init;
#X obj 294 555 s \$1delay_init;
#X msg 296 516 100;
#X obj 483 52 r \$1delay;
#X msg 385 438 0;
#X obj 383 477 s \$1debug_mode_init;
#X msg 514 439 0;
#X obj 512 478 s \$1loop_mode_init;
#X obj 256 390 r \$1opt_reset;
#X obj 265 361 r \$1reset;
#X connect 1 0 0 0;
#X connect 2 0 1 0;
#X connect 3 0 0 0;
#X connect 4 0 3 0;
#X connect 5 0 6 0;
#X connect 6 0 0 0;
#X connect 7 0 8 0;
#X connect 8 0 0 0;
#X connect 9 0 10 0;
#X connect 10 0 0 0;
#X connect 11 0 13 0;
#X connect 12 0 14 0;
#X connect 13 0 12 0;
#X connect 13 0 15 0;
#X connect 13 0 20 0;
#X connect 13 0 23 0;
#X connect 13 0 25 0;
#X connect 13 0 27 0;
#X connect 15 0 17 0;
#X connect 16 0 5 0;
#X connect 18 0 9 0;
#X connect 19 0 4 0;
#X connect 20 0 21 0;
#X connect 23 0 22 0;
#X connect 24 0 7 0;
#X connect 25 0 26 0;
#X connect 27 0 28 0;
#X connect 29 0 13 0;
#X connect 30 0 13 0;
#X restore 178 248 pd capture_op;
#X obj 174 72 tgl 13 0 \$1loop_mode \$1loop_mode_init loop 17 7 0 8
-260097 -1 -1 0 1;
#X obj 222 72 tgl 12 0 \$1debug_mode \$1ldebug_mode_init debug 17 7
0 8 -260097 -1 -1 0 1;
#X obj 345 43 r \$1capture;
#X obj 569 43 r \$1disconnect;
#X obj 176 92 nbx 3 13 0 2000 0 0 \$1timeout \$1timeout_init empty
20 8 0 8 -99865 -260097 -260097 500 256;
#X text 210 89 timeout;
#X obj 177 108 nbx 3 13 0 2000 0 0 \$1data \$1data_init empty 20 8
0 8 -99865 -260097 -260097 0 256;
#X text 211 105 data;
#X obj 177 124 nbx 3 13 0 2000 0 0 \$1packets \$1packets_init empty
20 8 0 8 -99865 -260097 -260097 1 256;
#X text 212 121 packets;
#X obj 177 140 nbx 3 13 0 2000 0 0 \$1delay \$1delay_init empty 20
8 0 8 -99865 -260097 -260097 100 256;
#X text 213 138 delay;
#X obj 269 58 bng 13 250 50 0 \$1opt_reset \$1opt_reset_init empty
17 7 0 10 -257985 -1 -1;
#X obj 54 162 cnv 15 115 50 empty empty empty 25 8 0 10 -99865 -262144
0;
#X obj 173 162 cnv 15 115 50 empty empty empty 20 12 0 14 -233017 -66577
0;
#X obj 177 196 hradio 12 1 0 9 empty \$0dump_file newcapture 0 7 0
8 -1 -1 -262144 0;
#X obj 177 181 bng 13 250 50 0 \$1select_dump \$1select_dump_init dump_file
16 7 0 8 -260097 -1 -1;
#X text 175 161 DUMP FILE;
#N canvas 6 175 549 340 dump_file 0;
#X obj 54 105 openpanel;
#X obj 54 83 bng 15 250 50 0 empty empty empty 17 7 0 10 -262144 -1
-1;
#X text 72 78 read;
#X obj 53 124 hcs/split_path;
#X msg 170 120 label \$1;
#X obj 54 54 r \$1select_dump;
#X obj 261 268 s \$1inputs;
#X obj 377 75 r \$1sump_off;
#X obj 304 74 r \$1dump_on;
#X obj 183 59 r \$1select_newfile;
#X msg 176 94 symbol newcapture;
#X msg 182 183 set dump \$1;
#X msg 288 199 dump newcapture;
#X msg 378 225 dump;
#X obj 170 143 s \$0dump_file;
#X connect 0 0 3 0;
#X connect 0 0 11 0;
#X connect 1 0 0 0;
#X connect 3 1 4 0;
#X connect 4 0 14 0;
#X connect 5 0 1 0;
#X connect 7 0 13 0;
#X connect 8 0 12 0;
#X connect 9 0 10 0;
#X connect 10 0 11 0;
#X connect 10 0 4 0;
#X connect 11 0 12 0;
#X connect 12 0 6 0;
#X connect 13 0 6 0;
#X restore 182 270 pd dump_file;
#X text 79 16 CONNECT DEVICE;
#X text 79 32 OPEN PCAP FILE;
#X obj 242 165 bng 13 250 50 0 \$1dump_on \$1dump_on_init ok 16 7 0
8 -260097 -1 -1;
#X obj 272 165 bng 13 250 50 0 \$1dump_off \$1dump_off_init empty 16
7 0 8 -257985 -1 -1;
#X obj 59 164 tgl 15 0 \$1status_out \$1status status 17 7 0 8 -4034
-1 -262144 0 1;
#X obj 225 480 s \$1status;
#X obj 118 164 bng 15 250 50 0 \$1info \$1info_init info 17 7 0 8 -260097
-1 -262144;
#X obj 59 178 bng 15 250 50 0 \$1reset \$1reset_init reset 17 7 0 8
-257985 -1 -262144;
#X obj 61 195 nbx 5 14 -1e+37 1e+37 0 0 \$1num_pkts_out \$1num_pkts
pkts 50 6 0 8 -260097 -1 -262144 0 256;
#X obj 378 451 s \$1num_pkts;
#X obj 371 522 s npacket;
#X obj 437 523 s ether;
#X obj 556 524 s ipsrc;
#X obj 609 524 s ipdst;
#X obj 489 524 s ipproto;
#X obj 664 524 s portsrc;
#X obj 729 523 s portdst;
#X obj 795 523 s header;
#X obj 915 521 s pbang;
#X obj 372 480 outlet;
#X obj 438 481 outlet;
#X obj 490 482 outlet;
#X obj 557 482 outlet;
#X obj 610 482 outlet;
#X obj 665 482 outlet;
#X obj 730 481 outlet;
#X obj 796 481 outlet;
#X obj 916 479 outlet;
#X obj 309 479 outlet;
#X obj 856 479 outlet;
#X obj 855 521 s data;
#X obj 250 180 bng 13 250 50 0 \$1select_newfile \$1select_newfile_init
new 17 7 0 8 -260097 -1 -1;
#X obj 148 193 bng 15 250 50 0 empty \$1pbang empty 17 7 0 10 -1 -262144
-262144;
#X obj 965 478 s \$1pbang;
#X obj 697 382 pcap_file;
#X obj 518 380 pcap_device;
#X obj 541 186 tgl 15 0 empty empty loop 17 7 0 10 -262144 -1 -1 0
1;
#X obj 542 166 r \$1loop_mode;
#X msg 813 126 info;
#X obj 813 102 r \$1info;
#X obj 444 87 r \$1traffic_source;
#X obj 345 108 demux device file;
#X obj 893 190 r \$1traffic_source;
#X obj 794 213 demux device file;
#X obj 668 50 r \$1traffic_source;
#X obj 569 71 demux device file;
#X msg 668 100 close;
#X obj 518 329 r $device_in;
#X obj 697 331 r $file_in;
#X obj 893 248 s $file_in;
#X obj 794 249 s $device_in;
#X obj 444 139 s $file_in;
#X obj 345 140 s $device_in;
#X obj 668 130 s $file_in;
#X obj 569 131 s $device_in;
#X obj 828 163 r \$1reset;
#X msg 828 187 reset;
#X obj 346 179 r \$1traffic_source;
#X obj 344 205 select 0 1;
#X msg 414 230 disconnect;
#X msg 344 229 close;
#X obj 344 259 s $file_in;
#X obj 414 259 s $device_in;
#X obj 640 190 r \$1traffic_source;
#X obj 541 211 demux device file;
#X obj 556 352 r $device_in2;
#X obj 735 354 r $file_in2;
#X obj 642 251 s $file_in2;
#X obj 543 252 s $device_in2;
#X connect 0 0 96 0;
#X connect 1 0 83 0;
#X connect 2 0 47 0;
#X connect 2 0 70 0;
#X connect 3 0 85 0;
#X connect 19 0 85 0;
#X connect 25 0 1 0;
#X connect 26 0 87 0;
#X connect 76 0 2 0;
#X connect 76 1 51 0;
#X connect 76 1 61 0;
#X connect 76 2 62 0;
#X connect 76 3 63 0;
#X connect 76 4 64 0;
#X connect 76 5 65 0;
#X connect 76 6 66 0;
#X connect 76 7 67 0;
#X connect 76 8 68 0;
#X connect 76 9 71 0;
#X connect 76 10 69 0;
#X connect 76 10 75 0;
#X connect 77 0 2 0;
#X connect 77 1 51 0;
#X connect 77 1 61 0;
#X connect 77 2 62 0;
#X connect 77 3 63 0;
#X connect 77 4 64 0;
#X connect 77 5 65 0;
#X connect 77 6 66 0;
#X connect 77 7 67 0;
#X connect 77 8 68 0;
#X connect 77 9 71 0;
#X connect 77 10 69 0;
#X connect 77 10 75 0;
#X connect 78 0 106 0;
#X connect 79 0 78 0;
#X connect 80 0 85 0;
#X connect 81 0 80 0;
#X connect 82 0 83 1;
#X connect 83 0 94 0;
#X connect 83 1 93 0;
#X connect 84 0 85 1;
#X connect 85 0 92 0;
#X connect 85 1 91 0;
#X connect 86 0 87 1;
#X connect 87 0 0 0;
#X connect 87 1 88 0;
#X connect 88 0 95 0;
#X connect 89 0 77 0;
#X connect 90 0 76 0;
#X connect 97 0 98 0;
#X connect 98 0 85 0;
#X connect 99 0 100 0;
#X connect 100 0 102 0;
#X connect 100 1 101 0;
#X connect 101 0 104 0;
#X connect 102 0 103 0;
#X connect 105 0 106 1;
#X connect 106 0 110 0;
#X connect 106 1 109 0;
#X connect 107 0 77 1;
#X connect 108 0 76 1;
#X coords 0 -1 1 1 240 220 2 50 0;
